<mxfile host="65bd71144e">
    <diagram id="ZZr83t1Dqxuq7CcLl1by" name="ページ1">
        <mxGraphModel dx="511" dy="395" grid="1" gridSize="10" guides="1" tooltips="1" connect="1" arrows="1" fold="1" page="1" pageScale="1" pageWidth="827" pageHeight="1169" math="0" shadow="0">
            <root>
                <mxCell id="0"/>
                <mxCell id="1" parent="0"/>
                <mxCell id="2" value="" style="rounded=0;whiteSpace=wrap;html=1;strokeColor=#000099;" vertex="1" parent="1">
                    <mxGeometry x="280" y="200" width="240" height="200" as="geometry"/>
                </mxCell>
                <mxCell id="3" value="" style="rounded=0;whiteSpace=wrap;html=1;strokeColor=#000099;dashed=1;" vertex="1" parent="1">
                    <mxGeometry x="310" y="230" width="180" height="120" as="geometry"/>
                </mxCell>
                <mxCell id="4" value="VNet" style="text;html=1;strokeColor=none;fillColor=none;align=center;verticalAlign=middle;whiteSpace=wrap;rounded=0;dashed=1;" vertex="1" parent="1">
                    <mxGeometry x="460" y="410" width="60" height="20" as="geometry"/>
                </mxCell>
                <mxCell id="5" value="Subnet" style="text;html=1;strokeColor=none;fillColor=none;align=center;verticalAlign=middle;whiteSpace=wrap;rounded=0;dashed=1;" vertex="1" parent="1">
                    <mxGeometry x="430" y="350" width="60" height="20" as="geometry"/>
                </mxCell>
                <mxCell id="6" value="" style="aspect=fixed;html=1;points=[];align=center;image;fontSize=12;image=img/lib/azure2/networking/Virtual_Networks.svg;dashed=1;strokeColor=#000099;" vertex="1" parent="1">
                    <mxGeometry x="430" y="410" width="33.5" height="20" as="geometry"/>
                </mxCell>
                <mxCell id="7" value="" style="aspect=fixed;html=1;points=[];align=center;image;fontSize=12;image=img/lib/azure2/networking/Network_Security_Groups.svg;dashed=1;strokeColor=#000099;" vertex="1" parent="1">
                    <mxGeometry x="455.28" y="240" width="24.72" height="30" as="geometry"/>
                </mxCell>
                <mxCell id="8" value="" style="aspect=fixed;html=1;points=[];align=center;image;fontSize=12;image=img/lib/azure2/compute/Virtual_Machine.svg;dashed=1;strokeColor=#000099;" vertex="1" parent="1">
                    <mxGeometry x="360" y="260" width="69" height="64" as="geometry"/>
                </mxCell>
                <mxCell id="9" value="VM" style="text;html=1;strokeColor=none;fillColor=none;align=center;verticalAlign=middle;whiteSpace=wrap;rounded=0;dashed=1;" vertex="1" parent="1">
                    <mxGeometry x="364.5" y="324" width="60" height="20" as="geometry"/>
                </mxCell>
                <mxCell id="10" value="NSG" style="text;html=1;strokeColor=none;fillColor=none;align=center;verticalAlign=middle;whiteSpace=wrap;rounded=0;dashed=1;" vertex="1" parent="1">
                    <mxGeometry x="437.64" y="275" width="60" height="20" as="geometry"/>
                </mxCell>
            </root>
        </mxGraphModel>
    </diagram>
</mxfile>